<?xml version="1.0" encoding="iso-8859-1"?>
<!-- Generator: Adobe Illustrator 19.0.1, SVG Export Plug-In . SVG Version: 6.00 Build 0)  -->
<!DOCTYPE svg PUBLIC "-//W3C//DTD SVG 1.1//EN" "http://www.w3.org/Graphics/SVG/1.1/DTD/svg11.dtd">
<svg version="1.1" id="Layer_1" xmlns="http://www.w3.org/2000/svg" xmlns:xlink="http://www.w3.org/1999/xlink" x="0px" y="0px"
	 viewBox="0 0 10 10" style="enable-background:new 0 0 10 10;" xml:space="preserve">
<g>
	<path d="M8.799,6.848L8.19,6.399l0.911-1.189L6.722,5.322L5.764,4.594L5.734,4.57L5.657,4.606L4.125,5.304l1.059-2.675l0.012-0.024
		L4.716,1.996l0,0l-0.024-0.03L4.657,1.919v0.006L4.284,1.517L4.237,1.464L4.196,1.47L2.888,1.6L2.19,3.511l1.396-1.325l0.231,0.846
		L2.119,5.268L2.101,5.292l0.941,2.379l0.101,0.118l2.58,1.047l0.509-0.533l0.314,0.112l0.243-0.32l1.438,0.124L7.551,7.227
		l0.154-0.201L8.799,6.848z M8.557,6.789L7.799,6.913l0.047-0.071L8.131,6.47L8.557,6.789z M6.568,5.328L6.267,5.339L5.929,4.842
		L6.568,5.328z M2.42,3.15l0.533-1.462l1.124-0.112L2.42,3.15z M3.675,2.126l0.544-0.544l0.379,0.42l-0.71,0.899L3.675,2.126z
		 M3.113,7.588l-0.899-2.29l2.444-3.219l0.432,0.544L4,5.363L3.113,7.588z M6.131,8.268l-0.432,0.45L3.432,7.801l2.899,0.254
		L6.131,8.268z M6.509,8.298L6.302,8.227l0.154-0.16l0.213,0.018L6.509,8.298z M8.03,8.109L3.184,7.683L4.077,5.44L5.71,4.694
		L8.03,8.109z M7.497,7.138l-1.16-1.704L6.846,5.41L8.9,5.316L8.113,6.339L7.77,6.783L7.497,7.138z"/>
</g>
</svg>
